# xmcd CD database file generated by MAGIX-FreeDB-MP3_Maker_12_e-version v2.0beta1
# 
# Track frame offsets:
#      150
#      10137
#      38251
#      52690
#      97894
#      115061
#      137424
#      151638
#      167902
#      186290
# 
# Disc length: 2708 seconds
# 
# Revision: 1 
# Processed by: cddbd v1.5.2PL0 Copyright (c) Steve Scherf et al.
# Submitted via: MAGIX-FreeDB-MP3_Maker_12_e-version v2.0beta1
# 
DISCID=630a920a
DTITLE=Willy Michl - Blues and Balladen
DYEAR=1997
DGENRE=Blues
TTITLE0=Willy Michl - Dichterstress
TTITLE1=Willy Michl - Drah di net um
TTITLE2=Willy Michl - Fliag, Vogel fliag
TTITLE3=Willy Michl - Wintermorgen
TTITLE4=Willy Michl - Mein Traum
TTITLE5=Willy Michl - Die Zeche
TTITLE6=Willy Michl - Entrümpelung
TTITLE7=Willy Michl - Stein der Weisen
TTITLE8=Willy Michl - Waxenstein-Blues
TTITLE9=Willy Michl - Abschied
EXTD=YEAR: 19975
EXTT0=
EXTT1=
EXTT2=
EXTT3=
EXTT4=
EXTT5=
EXTT6=
EXTT7=
EXTT8=
EXTT9=
PLAYORDER=
